<svg xmlns="http://www.w3.org/2000/svg" fill="none" viewBox="0 0 234 51" height="51" width="234">
<g clip-path="url(#clip0_435_1594)">
<path fill="#0645AB" d="M30.6164 20.942V12.5728C30.6164 12.3723 30.4463 12.2124 30.2396 12.2124H7.28629C6.20456 12.2124 5.15929 12.41 4.15048 12.8025C3.14168 13.1949 2.3243 13.7618 1.7014 14.5031C1.07849 15.2443 0.768555 16.0845 0.768555 17.0292V23.7967C0.768555 24.7385 1.07849 25.5816 1.7014 26.3228C2.3243 27.0641 3.14168 27.6368 4.15048 28.0409C5.16233 28.4449 6.20456 28.6455 7.28629 28.6455H17.7602C17.9699 28.6455 18.137 28.8083 18.137 29.006V29.631C18.137 29.8316 17.9669 29.9943 17.7602 29.9943H1.14534C0.935676 29.9943 0.768555 30.1542 0.768555 30.3548V38.7211C0.768555 38.9217 0.938715 39.0845 1.14534 39.0845H24.0957C25.1774 39.0845 26.2226 38.8897 27.2315 38.4943C28.2403 38.1019 29.0576 37.535 29.6805 36.7938C30.3034 36.0525 30.6134 35.2095 30.6134 34.2705V27.5031C30.6134 26.5583 30.3004 25.7182 29.6805 24.9769C29.0576 24.2356 28.2403 23.663 27.2315 23.2589C26.2196 22.8548 25.1743 22.6542 24.0957 22.6542H13.6187C13.409 22.6542 13.2419 22.4914 13.2419 22.2909V21.6659C13.2419 21.4653 13.412 21.3054 13.6187 21.3054H30.2366C30.4463 21.3054 30.6134 21.1426 30.6134 20.942M79.5951 18.0031C80.5827 18.0031 81.4152 18.3286 82.0989 18.9798C82.7795 19.631 83.1199 20.4275 83.1199 21.3693C83.1199 22.3112 82.7795 23.0816 82.0989 23.7443C81.4183 24.4071 80.5827 24.7385 79.5951 24.7385C78.6076 24.7385 77.8328 24.4013 77.1278 23.7269C76.4229 23.0525 76.0704 22.2676 76.0704 21.3693C76.0704 20.4246 76.4168 19.631 77.1096 18.9798C77.8024 18.3286 78.6319 18.0031 79.5951 18.0031ZM92.0685 12.785C91.0596 12.381 90.0235 12.1775 88.9691 12.1775H64.0802C63.8705 12.1775 63.7034 12.3403 63.7034 12.5379V38.7502C63.7034 38.9507 63.8736 39.1106 64.0802 39.1106H75.7999C76.0096 39.1106 76.1767 38.9478 76.1767 38.7502V31.0874C76.1767 30.8868 76.3469 30.7269 76.5535 30.7269H82.6337C82.8434 30.7269 83.0105 30.8897 83.0105 31.0874V38.7502C83.0105 38.9507 83.1806 39.1106 83.3873 39.1106H95.107C95.3167 39.1106 95.4868 38.9478 95.4868 38.7502V30.7938C95.4868 29.3345 94.636 28.2967 92.9314 27.6804C92.5789 27.5525 92.2143 27.4391 91.8406 27.3374C91.4911 27.2443 91.4638 26.7763 91.8041 26.6542C91.8922 26.6223 91.9803 26.5903 92.0654 26.5525C93.0773 26.1484 93.8977 25.5816 94.5327 24.8519C95.1678 24.1223 95.4838 23.285 95.4838 22.3432V17.0234C95.4838 16.0816 95.1678 15.2385 94.5327 14.5002C93.8977 13.7589 93.0773 13.1862 92.0654 12.7821M97.2735 39.1135H108.99C109.2 39.1135 109.367 38.9507 109.367 38.7531V16.9827C109.367 16.7821 109.197 16.6223 108.99 16.6223H97.2735C97.0639 16.6223 96.8967 16.7821 96.8967 16.9827V38.7531C96.8967 38.9536 97.0669 39.1135 97.2735 39.1135ZM128.504 22.4711L119.738 12.2763C119.665 12.192 119.558 12.1455 119.446 12.1455H111.157C110.947 12.1455 110.777 12.3054 110.777 12.506V38.7531C110.777 38.9536 110.947 39.1135 111.157 39.1135H122.873C123.083 39.1135 123.25 38.9507 123.25 38.7531V29.0409C123.25 28.7036 123.694 28.5496 123.919 28.8112L132.688 38.9827C132.758 39.067 132.867 39.1135 132.98 39.1135H141.232C141.442 39.1135 141.609 38.9507 141.609 38.7531V12.5409C141.609 12.3403 141.439 12.1804 141.232 12.1804H129.549C129.34 12.1804 129.172 12.3432 129.172 12.5409V22.2414C129.172 22.5816 128.729 22.7327 128.504 22.4711ZM172.87 21.0757V12.5379C172.87 12.3374 172.7 12.1775 172.493 12.1775H143.402C143.192 12.1775 143.025 12.3403 143.025 12.5379V21.0757C143.025 21.2763 143.195 21.4362 143.402 21.4362H151.351C151.561 21.4362 151.728 21.599 151.728 21.7967V38.7502C151.728 38.9507 151.895 39.1106 152.104 39.1106H163.824C164.034 39.1106 164.201 38.9478 164.201 38.7502V21.7967C164.201 21.5961 164.371 21.4362 164.578 21.4362H172.49C172.7 21.4362 172.867 21.2734 172.867 21.0757M217.34 18.0031C218.324 18.0031 219.16 18.3286 219.84 18.9798C220.521 19.631 220.861 20.4275 220.861 21.3693C220.861 22.3112 220.521 23.0816 219.84 23.7443C219.157 24.4071 218.324 24.7385 217.34 24.7385C216.355 24.7385 215.577 24.4013 214.872 23.7269C214.167 23.0525 213.815 22.2676 213.815 21.3693C213.815 20.4711 214.161 19.631 214.854 18.9798C215.547 18.3286 216.373 18.0031 217.34 18.0031ZM201.448 12.5409V38.7531C201.448 38.9536 201.618 39.1135 201.825 39.1135H213.541C213.751 39.1135 213.918 38.9507 213.918 38.7531V31.0932C213.918 30.8926 214.088 30.7327 214.295 30.7327H220.375C220.585 30.7327 220.752 30.8955 220.752 31.0932V38.7531C220.752 38.9536 220.922 39.1135 221.132 39.1135H232.848C233.058 39.1135 233.228 38.9507 233.228 38.7531V30.7967C233.228 29.3374 232.377 28.2996 230.673 27.6833C230.32 27.5554 229.956 27.442 229.582 27.3403C229.233 27.2473 229.208 26.7792 229.545 26.6571C229.634 26.6252 229.722 26.5903 229.81 26.5554C230.822 26.1513 231.642 25.5845 232.277 24.8548C232.912 24.1252 233.228 23.288 233.228 22.3461V17.0263C233.228 16.0845 232.909 15.2414 232.277 14.5002C231.642 13.7589 230.822 13.1862 229.81 12.7821C228.801 12.3781 227.765 12.1775 226.711 12.1775H201.822C201.612 12.1775 201.445 12.3403 201.445 12.5379M174.277 12.5409V38.7531C174.277 38.9536 174.447 39.1135 174.654 39.1135H199.342C199.552 39.1135 199.719 38.9507 199.719 38.7531V30.3519C199.719 30.1513 199.549 29.9914 199.342 29.9914H187.13C186.92 29.9914 186.753 29.8286 186.753 29.6281V29.0031C186.753 28.8025 186.923 28.6426 187.13 28.6426H199.342C199.552 28.6426 199.719 28.4798 199.719 28.2821V23.0118C199.719 22.8112 199.549 22.6513 199.342 22.6513H187.13C186.92 22.6513 186.753 22.4885 186.753 22.2909V21.6659C186.753 21.4653 186.923 21.3054 187.13 21.3054H199.342C199.552 21.3054 199.719 21.1426 199.719 20.942V12.5409C199.719 12.3403 199.549 12.1804 199.342 12.1804H174.654C174.444 12.1804 174.277 12.3432 174.277 12.5409ZM47.1402 24.7356C46.2012 24.7356 45.3778 24.3984 44.6728 23.724C43.9679 23.0496 43.6154 22.2647 43.6154 21.3664C43.6154 20.4682 43.9618 19.6281 44.6546 18.9769C45.3474 18.3257 46.1769 18.0002 47.1402 18.0002C48.1034 18.0002 48.9603 18.3257 49.6409 18.9769C50.3215 19.6281 50.6619 20.4246 50.6619 21.3664C50.6619 22.3083 50.3215 23.0786 49.6409 23.7414C48.9603 24.4042 48.1247 24.7356 47.1402 24.7356ZM32.4031 39.1135H44.1229C44.3325 39.1135 44.4996 38.9507 44.4996 38.7531V31.0932C44.4996 30.8926 44.6698 30.7327 44.8795 30.7327H55.7424C56.7998 30.7327 57.8329 30.5292 58.8447 30.1252C59.8535 29.7211 60.677 29.1542 61.312 28.4246C61.9471 27.6949 62.2631 26.8461 62.2631 25.8839V16.9943C62.2631 16.0525 61.9441 15.2095 61.312 14.4711C60.677 13.7298 59.8535 13.1629 58.8447 12.7705C57.8329 12.3781 56.7998 12.1804 55.7424 12.1804H32.4031C32.1934 12.1804 32.0263 12.3432 32.0263 12.5409V38.7531C32.0263 38.9536 32.1965 39.1135 32.4031 39.1135Z"></path>
<path fill="#0645AB" d="M108.449 0.907064L103.423 4.22102C103.302 4.30241 103.141 4.30241 103.016 4.22102L97.9083 0.851831C97.6287 0.668692 97.2641 0.924506 97.3644 1.23265L98.8199 5.79369C98.8867 6.0059 98.7317 6.22102 98.5008 6.23555L64.0951 7.88381C63.6454 7.90997 63.6454 8.54078 64.0951 8.56695L98.5008 10.2152C98.7317 10.2297 98.8897 10.4449 98.8199 10.6571L97.3644 15.2181C97.2672 15.5292 97.6287 15.7821 97.9083 15.5989L103.016 12.2326C103.138 12.1512 103.299 12.1512 103.423 12.2326L108.449 15.5466C108.738 15.7356 109.108 15.4594 108.987 15.1454L107.234 10.5786C107.164 10.3954 107.267 10.1919 107.462 10.1338L112.743 8.55241C113.077 8.45358 113.077 8.00009 112.743 7.89834L107.462 6.31695C107.267 6.25881 107.161 6.05532 107.234 5.87218L108.987 1.30532C109.108 0.991366 108.735 0.715203 108.449 0.907064Z"></path>
</g>
<defs>
<clipPath id="clip0_435_1594">
<rect transform="translate(0.768555 0.5)" fill="white" height="50" width="232.463"></rect>
</clipPath>
</defs>
</svg>
